<svg width="308" height="132" viewBox="0 0 308 132" fill="none" xmlns="http://www.w3.org/2000/svg">
<path d="M107.235 30.0814C107.355 29.0751 108.208 28.3171 109.221 28.3171H216.749C217.947 28.3171 218.876 29.3632 218.735 30.5529L208.765 114.553C208.645 115.559 207.792 116.317 206.779 116.317H99.2514C98.0534 116.317 97.1242 115.271 97.2654 114.081L107.235 30.0814Z" fill="#4E62EE"/>
<g filter="url(#filter0_d_17_422)">
<path d="M13.8041 23.0985C13.9156 22.0846 14.7721 21.3171 15.7921 21.3171H112.904C114.095 21.3171 115.023 22.3518 114.892 23.5358L104.332 119.536C104.221 120.55 103.364 121.317 102.344 121.317H5.23206C4.04092 121.317 3.11381 120.282 3.24405 119.098L13.8041 23.0985Z" fill="white"/>
</g>
<path d="M78.7744 53.8462C75.1774 52.2127 71.3202 51.0093 67.2873 50.32C67.2139 50.3067 67.1405 50.34 67.1027 50.4065C66.6066 51.2797 66.0571 52.4188 65.6723 53.3142C61.3346 52.6715 57.0192 52.6715 52.7705 53.3142C52.3856 52.3989 51.8162 51.2797 51.3179 50.4065C51.28 50.3422 51.2067 50.3089 51.1332 50.32C47.1025 51.0071 43.2453 52.2105 39.6461 53.8462C39.615 53.8595 39.5883 53.8816 39.5705 53.9104C32.2542 64.7282 30.25 75.2801 31.2332 85.7011C31.2377 85.7521 31.2666 85.8009 31.3066 85.8319C36.1337 89.3402 40.8096 91.4701 45.3986 92.8819C45.472 92.9041 45.5498 92.8775 45.5966 92.8176C46.6821 91.3505 47.6498 89.8035 48.4794 88.1767C48.5284 88.0814 48.4817 87.9684 48.3816 87.9307C46.8467 87.3545 45.3852 86.6519 43.9794 85.854C43.8682 85.7898 43.8593 85.6324 43.9616 85.557C44.2574 85.3376 44.5533 85.1093 44.8358 84.8788C44.8869 84.8367 44.9581 84.8278 45.0182 84.8544C54.2541 89.0278 64.2531 89.0278 73.38 84.8544C73.4401 84.8256 73.5113 84.8345 73.5647 84.8766C73.8473 85.1071 74.1431 85.3376 74.4412 85.557C74.5435 85.6324 74.5368 85.7898 74.4256 85.854C73.0197 86.6674 71.5582 87.3545 70.0211 87.9285C69.9211 87.9662 69.8765 88.0814 69.9255 88.1767C70.773 89.8012 71.7406 91.3482 72.8061 92.8154C72.8507 92.8775 72.9307 92.9041 73.0041 92.8819C77.6154 91.4701 82.2912 89.3402 87.1183 85.8319C87.1606 85.8009 87.1873 85.7543 87.1918 85.7033C88.3685 73.6554 85.2208 63.1901 78.8478 53.9126C78.8322 53.8816 78.8056 53.8595 78.7744 53.8462ZM49.8587 79.3558C47.078 79.3558 44.7869 76.8292 44.7869 73.7264C44.7869 70.6236 47.0336 68.097 49.8587 68.097C52.7059 68.097 54.9749 70.6457 54.9304 73.7264C54.9304 76.8292 52.6837 79.3558 49.8587 79.3558ZM68.6108 79.3558C65.8303 79.3558 63.5391 76.8292 63.5391 73.7264C63.5391 70.6236 65.7857 68.097 68.6108 68.097C71.4582 68.097 73.7271 70.6457 73.6826 73.7264C73.6826 76.8292 71.4582 79.3558 68.6108 79.3558Z" fill="#4E62EE"/>
<path d="M133.12 45.1091C130.7 45.1091 128.588 47.0451 128.236 49.2891C127.84 51.5771 129.468 53.5131 131.756 53.5131C134.176 53.5131 136.288 51.6211 136.64 49.2891C137.036 47.0011 135.452 45.1091 133.12 45.1091ZM123.836 77.3171C123.528 79.2091 122.296 80.1331 120.14 80.0011L118.952 86.7771C126.212 87.1731 129.908 84.5331 131.14 77.3171L135.012 55.3171H127.708L123.836 77.3171ZM146.512 77.9331C149.9 77.9331 152.804 76.8331 155.224 74.6771C157.644 72.5211 159.096 69.9251 159.624 66.9331C160.196 63.8091 159.536 60.9931 157.688 58.4851C155.84 55.9771 153.156 54.7011 149.636 54.7011C146.072 54.7011 143.124 55.7571 140.748 57.8691C138.416 59.9811 136.92 62.5771 136.348 65.6131C135.028 71.4651 138.9 77.9771 146.512 77.9331ZM147.084 70.8931C144.576 70.8931 143.08 69.0011 143.564 66.3171C144.048 63.6331 146.204 61.7411 148.712 61.7411C151.308 61.7411 152.76 63.6331 152.276 66.3171C151.792 69.0011 149.68 70.8931 147.084 70.8931ZM168.909 53.5131C171.329 53.5131 173.441 51.6211 173.793 49.2891C174.189 47.0011 172.605 45.1091 170.273 45.1091C167.853 45.1091 165.741 47.0451 165.389 49.2891C164.993 51.5771 166.62 53.5131 168.909 53.5131ZM168.293 77.3171L172.165 55.3171H164.861L160.989 77.3171H168.293ZM189.708 54.7011C187.112 54.7011 184.956 55.6691 183.284 57.5611L183.68 55.3171H176.376L172.504 77.3171H179.808L181.876 65.5691V65.6131C182.36 62.9731 183.9 61.6091 186.144 61.6091C188.124 61.6091 189.224 62.7531 188.872 65.0851L186.716 77.3171H194.02L196.352 64.1611C197.364 58.1771 194.46 54.7011 189.708 54.7011ZM126.64 99.5131C128.026 99.5131 129.258 98.8971 129.972 97.7211L128.124 96.5451C127.802 97.0071 127.368 97.2451 126.822 97.2451C126.038 97.2451 125.534 96.6431 125.688 95.8031C125.814 94.9631 126.514 94.3891 127.34 94.3891C127.858 94.3891 128.222 94.6131 128.432 95.0611L130.546 93.9551C130.042 92.8351 129.006 92.1211 127.536 92.1211C126.486 92.1211 125.576 92.4571 124.792 93.1291C124.008 93.7871 123.532 94.6411 123.364 95.6771C123.196 96.7551 123.42 97.6651 124.036 98.4071C124.652 99.1491 125.52 99.5131 126.64 99.5131ZM133.858 99.5131C134.936 99.5131 135.86 99.1631 136.63 98.4771C137.4 97.7911 137.862 96.9651 138.03 96.0131C138.212 95.0191 138.002 94.1231 137.414 93.3251C136.826 92.5271 135.972 92.1211 134.852 92.1211C133.718 92.1211 132.78 92.4571 132.024 93.1291C131.282 93.8011 130.806 94.6271 130.624 95.5931C130.204 97.4551 131.436 99.5271 133.858 99.5131ZM134.04 97.2731C133.242 97.2731 132.766 96.6711 132.92 95.8171C133.074 94.9631 133.76 94.3611 134.558 94.3611C135.384 94.3611 135.846 94.9631 135.692 95.8171C135.538 96.6711 134.866 97.2731 134.04 97.2731ZM147.676 92.1211C146.85 92.1211 146.136 92.4291 145.534 93.0591C145.226 92.4291 144.666 92.1211 143.854 92.1211C143.084 92.1211 142.426 92.4011 141.908 92.9611L142.02 92.3171H139.696L138.464 99.3171H140.788L141.474 95.3971C141.642 94.6831 142.034 94.3191 142.636 94.3191C143.21 94.3191 143.434 94.6411 143.336 95.2991L142.636 99.3171H144.96L145.674 95.2711C145.842 94.6411 146.22 94.3191 146.808 94.3191C147.382 94.3191 147.62 94.6411 147.494 95.2991L146.794 99.3171H149.132L149.874 95.0331C150.196 93.2411 149.258 92.1211 147.676 92.1211ZM159.571 92.1211C158.745 92.1211 158.031 92.4291 157.429 93.0591C157.121 92.4291 156.561 92.1211 155.749 92.1211C154.979 92.1211 154.321 92.4011 153.803 92.9611L153.915 92.3171H151.591L150.359 99.3171H152.683L153.369 95.3971C153.537 94.6831 153.929 94.3191 154.531 94.3191C155.105 94.3191 155.329 94.6411 155.231 95.2991L154.531 99.3171H156.855L157.569 95.2711C157.737 94.6411 158.115 94.3191 158.703 94.3191C159.277 94.3191 159.515 94.6411 159.389 95.2991L158.689 99.3171H161.027L161.769 95.0331C162.091 93.2411 161.153 92.1211 159.571 92.1211ZM167.251 96.0551V96.0411C167.097 96.8811 166.607 97.3151 165.893 97.3151C165.263 97.3151 164.913 96.9511 165.025 96.2091L165.711 92.3171H163.387L162.645 96.5031C162.323 98.4071 163.247 99.5131 164.759 99.5131C165.585 99.5131 166.271 99.2051 166.803 98.6031L166.677 99.3171H169.001L170.233 92.3171H167.909L167.251 96.0551ZM175.821 92.1211C174.995 92.1211 174.309 92.4291 173.777 93.0311L173.903 92.3171H171.579L170.347 99.3171H172.671L173.329 95.5791V95.5931C173.483 94.7531 173.973 94.3191 174.687 94.3191C175.317 94.3191 175.667 94.6831 175.555 95.4251L174.869 99.3171H177.193L177.935 95.1311C178.257 93.2271 177.333 92.1211 175.821 92.1211ZM180.961 91.7431C181.731 91.7431 182.403 91.1411 182.515 90.3991C182.641 89.6711 182.137 89.0691 181.395 89.0691C180.625 89.0691 179.953 89.6851 179.841 90.3991C179.715 91.1271 180.233 91.7431 180.961 91.7431ZM180.765 99.3171L181.997 92.3171H179.673L178.441 99.3171H180.765ZM187.285 94.5431L187.691 92.3171H186.221L186.571 90.3571L184.121 91.0571L183.897 92.3171H182.847L182.455 94.5431H183.505L183.141 96.6291C182.763 98.7991 183.827 99.6671 186.459 99.3171L186.823 97.2171C185.745 97.2871 185.367 97.2031 185.479 96.5731L185.829 94.5431H187.285ZM191.367 96.3631L190.639 92.3171H188.175L189.743 99.0371C189.309 99.7231 188.917 99.9331 187.909 99.9331L187.517 102.117C189.589 102.285 191.087 101.445 192.305 99.1071L195.861 92.3171H193.187L191.367 96.3631Z" fill="white"/>
<path fill-rule="evenodd" clip-rule="evenodd" d="M232.484 0.317139C231.484 0.317139 230.638 1.05607 230.503 2.04714L226.957 28.0729C225.728 33.564 223.588 39.7193 222.583 41.6795C222.426 41.9865 223.289 41.5509 224.968 40.7033C229.341 38.4962 239.25 33.4952 251.094 31.534H302.001C303.001 31.534 303.848 30.7951 303.983 29.804L307.691 2.58713C307.855 1.38635 306.921 0.317139 305.709 0.317139H232.484Z" fill="white"/>
<path d="M241.144 10.1171L239.176 21.3171H243.736C245.384 21.3171 246.792 20.8051 247.96 19.7971C249.128 18.7891 249.864 17.4771 250.152 15.8771C250.424 14.2931 250.12 12.9491 249.24 11.8131C248.36 10.6771 247.176 10.1171 245.704 10.1171H241.144ZM247.368 15.6691C247.208 16.5331 246.824 17.2371 246.232 17.7651C245.64 18.2931 244.952 18.5491 244.136 18.5491H242.6L243.608 12.8851H245.224C246.776 12.8851 247.64 13.9891 247.368 15.6691ZM253.288 12.6611C254.168 12.6611 254.936 11.9731 255.064 11.1251C255.208 10.2931 254.632 9.60514 253.784 9.60514C252.904 9.60514 252.136 10.3091 252.008 11.1251C251.864 11.9571 252.456 12.6611 253.288 12.6611ZM253.064 21.3171L254.472 13.3171H251.816L250.408 21.3171H253.064ZM257.844 21.5411C258.756 21.5411 259.54 21.3491 260.196 20.9651C260.852 20.5811 261.268 19.9731 261.412 19.1571C261.684 17.5411 260.804 16.8851 259.828 16.5971C258.884 16.2291 257.86 16.2451 257.972 15.6531C258.036 15.3491 258.276 15.2051 258.676 15.2211C259.14 15.2371 259.476 15.4771 259.668 15.9571L261.924 14.8691C261.412 13.7171 260.228 13.0931 258.756 13.0931C257.94 13.0931 257.204 13.3011 256.532 13.7011C255.86 14.1011 255.46 14.7091 255.316 15.5091C254.996 17.3171 256.356 17.9571 257.444 18.2291C258.212 18.4371 258.82 18.6451 258.756 18.9651C258.708 19.2211 258.452 19.3491 257.988 19.3491C257.332 19.3491 256.9 19.0451 256.66 18.4371L254.324 19.5731C254.9 20.8851 256.068 21.5411 257.844 21.5411ZM266.004 21.5411C267.588 21.5411 268.996 20.8371 269.812 19.4931L267.7 18.1491C267.332 18.6771 266.836 18.9491 266.212 18.9491C265.316 18.9491 264.74 18.2611 264.916 17.3011C265.06 16.3411 265.86 15.6851 266.804 15.6851C267.396 15.6851 267.812 15.9411 268.052 16.4531L270.468 15.1891C269.892 13.9091 268.708 13.0931 267.028 13.0931C265.828 13.0931 264.788 13.4771 263.892 14.2451C262.996 14.9971 262.452 15.9731 262.26 17.1571C262.068 18.3891 262.324 19.4291 263.028 20.2771C263.732 21.1251 264.724 21.5411 266.004 21.5411ZM274.253 21.5411C275.485 21.5411 276.541 21.1411 277.421 20.3571C278.301 19.5731 278.829 18.6291 279.021 17.5411C279.229 16.4051 278.989 15.3811 278.317 14.4691C277.645 13.5571 276.669 13.0931 275.389 13.0931C274.093 13.0931 273.021 13.4771 272.157 14.2451C271.309 15.0131 270.765 15.9571 270.557 17.0611C270.077 19.1891 271.485 21.5571 274.253 21.5411ZM274.461 18.9811C273.549 18.9811 273.005 18.2931 273.181 17.3171C273.357 16.3411 274.141 15.6531 275.053 15.6531C275.997 15.6531 276.525 16.3411 276.349 17.3171C276.173 18.2931 275.405 18.9811 274.461 18.9811ZM283.581 13.3171H280.925L279.517 21.3171H282.173L282.797 17.7491L282.765 18.0051C282.893 17.2531 283.229 16.7251 283.773 16.4211C284.333 16.1171 284.909 16.0211 285.517 16.1011L286.013 13.1571C284.813 13.1571 283.805 13.7331 283.309 14.8211L283.581 13.3171ZM292.351 14.2131C291.887 13.4611 291.151 13.0931 290.127 13.0931C288.975 13.0931 288.015 13.4931 287.231 14.3091C286.447 15.1091 285.967 16.0691 285.791 17.2051C285.599 18.3731 285.775 19.3811 286.319 20.2451C286.879 21.1091 287.727 21.5411 288.863 21.5411C289.807 21.5411 290.591 21.2531 291.215 20.6771L291.103 21.3171H293.759L295.727 10.1171H293.071L292.351 14.2131ZM289.823 19.0611C288.815 19.0611 288.271 18.3571 288.447 17.3171C288.527 16.7891 288.751 16.3731 289.119 16.0531C289.487 15.7331 289.935 15.5731 290.431 15.5731C290.927 15.5731 291.311 15.7331 291.551 16.0371C291.807 16.3411 291.903 16.7411 291.823 17.2531L291.791 17.4131C291.583 18.4211 290.799 19.0611 289.823 19.0611Z" fill="#4E62EE"/>
<defs>
<filter id="filter0_d_17_422" x="0.231812" y="19.3171" width="123.673" height="112" filterUnits="userSpaceOnUse" color-interpolation-filters="sRGB">
<feFlood flood-opacity="0" result="BackgroundImageFix"/>
<feColorMatrix in="SourceAlpha" type="matrix" values="0 0 0 0 0 0 0 0 0 0 0 0 0 0 0 0 0 0 127 0" result="hardAlpha"/>
<feOffset dx="3" dy="4"/>
<feGaussianBlur stdDeviation="3"/>
<feComposite in2="hardAlpha" operator="out"/>
<feColorMatrix type="matrix" values="0 0 0 0 0 0 0 0 0 0 0 0 0 0 0 0 0 0 0.2 0"/>
<feBlend mode="normal" in2="BackgroundImageFix" result="effect1_dropShadow_17_422"/>
<feBlend mode="normal" in="SourceGraphic" in2="effect1_dropShadow_17_422" result="shape"/>
</filter>
</defs>
</svg>
